<svg width="27" height="25" viewBox="0 0 27 25" fill="none" xmlns="http://www.w3.org/2000/svg">
<path d="M25 4.5H22V1.5C22 1.10218 21.842 0.720644 21.5607 0.43934C21.2794 0.158035 20.8978 0 20.5 0C20.1022 0 19.7206 0.158035 19.4393 0.43934C19.158 0.720644 19 1.10218 19 1.5V4.5H16C15.6022 4.5 15.2206 4.65804 14.9393 4.93934C14.658 5.22064 14.5 5.60218 14.5 6C14.5 6.39782 14.658 6.77936 14.9393 7.06066C15.2206 7.34196 15.6022 7.5 16 7.5H19V10.5C19 10.8978 19.158 11.2794 19.4393 11.5607C19.7206 11.842 20.1022 12 20.5 12C20.8978 12 21.2794 11.842 21.5607 11.5607C21.842 11.2794 22 10.8978 22 10.5V7.5H25C25.3978 7.5 25.7794 7.34196 26.0607 7.06066C26.342 6.77936 26.5 6.39782 26.5 6C26.5 5.60218 26.342 5.22064 26.0607 4.93934C25.7794 4.65804 25.3978 4.5 25 4.5Z" fill="#595959"/>
<path d="M1.54137 17.2839C1.54137 15.8631 2.70694 14.7119 4.14541 14.7119C5.58388 14.7119 6.74944 15.8631 6.74944 17.2839C6.74944 18.7047 5.58388 19.8559 4.14541 19.8559C2.70694 19.8559 1.54137 18.7047 1.54137 17.2839ZM7.55669 24.6203C7.7546 24.3806 7.83272 24.0648 7.76918 23.7623C7.42024 22.0946 5.89532 20.8847 4.14541 20.8847C2.39549 20.8847 0.870568 22.0946 0.521628 23.7623C0.458089 24.0648 0.53621 24.3806 0.734117 24.6203C0.932024 24.8601 1.22888 25 1.54137 25H6.74944C7.06297 25 7.35879 24.8611 7.55669 24.6203ZM25.4985 18.8271C25.4985 16.5576 23.6299 14.7119 21.332 14.7119H11.9575C10.8086 14.7119 9.87429 13.7891 9.87429 12.6543C9.87429 11.5195 10.8086 10.5967 11.9575 10.5967H12.9991C13.5741 10.5967 14.0407 10.1358 14.0407 9.56787C14.0407 8.99997 13.5741 8.53906 12.9991 8.53906H11.9575C9.65971 8.53906 7.79106 10.3847 7.79106 12.6543C7.79106 14.9238 9.65971 16.7695 11.9575 16.7695H21.332C22.4809 16.7695 23.4153 17.6924 23.4153 18.8271C23.4153 19.9619 22.4809 20.8847 21.332 20.8847H10.9159C10.3409 20.8847 9.87429 21.3456 9.87429 21.9135C9.87429 22.4815 10.3409 22.9424 10.9159 22.9424H21.332C23.6299 22.9424 25.4985 21.0967 25.4985 18.8271Z" fill="#595959"/>
</svg>
