<svg width="16" height="16" viewBox="0 0 16 16" fill="none" xmlns="http://www.w3.org/2000/svg">
<path d="M13.9998 11C13.9998 12.103 13.1028 13 11.9998 13H9.49982C9.22332 13 8.99982 12.776 8.99982 12.5C8.99982 12.224 9.22332 12 9.49982 12H11.9998C12.5513 12 12.9998 11.5515 12.9998 11C12.9998 10.4485 12.5513 10 11.9998 10H8.49982C7.39682 10 6.49982 9.103 6.49982 8C6.49982 6.897 7.39682 6 8.49982 6H9.49982C9.77632 6 9.99982 6.224 9.99982 6.5C9.99982 6.776 9.77632 7 9.49982 7H8.49982C7.94832 7 7.49982 7.4485 7.49982 8C7.49982 8.5515 7.94832 9 8.49982 9H11.9998C13.1028 9 13.9998 9.897 13.9998 11ZM7.99982 12.25C7.99982 12.664 7.66382 13 7.24982 13H6.98732C6.99332 13.041 6.99982 13.082 6.99982 13.125C6.99982 13.608 6.60782 14 6.12482 14C5.64182 14 5.24982 13.608 5.24982 13.125C5.24982 13.082 5.25632 13.041 5.26232 13H4.23732C4.24332 13.041 4.24982 13.082 4.24982 13.125C4.24982 13.608 3.85782 14 3.37482 14C2.89182 14 2.49982 13.608 2.49982 13.125C2.49982 13.068 2.50632 13.013 2.51632 12.9595C2.21682 12.861 1.99982 12.5825 1.99982 12.25V11C1.99982 10.173 2.67282 9.5 3.49982 9.5H4.44732C5.11732 9.5 5.73932 9.833 6.11132 10.3905L6.85082 11.5H7.24982C7.66382 11.5 7.99982 11.836 7.99982 12.25ZM2.99982 11.5H5.64882L5.27882 10.9455C5.09282 10.6665 4.78182 10.5 4.44682 10.5H3.49932C3.22382 10.5 2.99932 10.7245 2.99932 11V11.5H2.99982ZM11.4998 7C11.7763 7 11.9998 6.776 11.9998 6.5V4.625L13.7823 3.6825C14.0728 3.483 14.0728 3.018 13.7823 2.818L12.3758 2.1885C12.0978 2.064 11.8003 2 11.5003 2C11.2238 2 11.0003 2.224 11.0003 2.5V6.5C11.0003 6.776 11.2233 7 11.4998 7Z" fill="black" fill-opacity="0.65"/>
</svg>
