<svg width="18" height="18" viewBox="0 0 18 18" fill="none" xmlns="http://www.w3.org/2000/svg">
<path d="M9 18C7.21997 18 5.47991 17.4722 3.99987 16.4832C2.51983 15.4943 1.36628 14.0887 0.685088 12.4442C0.00389957 10.7996 -0.17433 8.99002 0.172937 7.24419C0.520204 5.49836 1.37737 3.89472 2.63604 2.63604C3.89472 1.37737 5.49836 0.520204 7.24419 0.172937C8.99002 -0.17433 10.7996 0.00389957 12.4442 0.685088C14.0887 1.36628 15.4943 2.51983 16.4832 3.99987C17.4722 5.47991 18 7.21997 18 9C17.9974 11.3862 17.0484 13.6738 15.3611 15.3611C13.6738 17.0484 11.3862 17.9974 9 18ZM9 2.25C7.66498 2.25 6.35994 2.64588 5.2499 3.38758C4.13987 4.12928 3.27471 5.18349 2.76382 6.41689C2.25293 7.65029 2.11925 9.00749 2.3797 10.3169C2.64015 11.6262 3.28303 12.829 4.22703 13.773C5.17104 14.717 6.37377 15.3599 7.68314 15.6203C8.99252 15.8808 10.3497 15.7471 11.5831 15.2362C12.8165 14.7253 13.8707 13.8601 14.6124 12.7501C15.3541 11.6401 15.75 10.335 15.75 9C15.748 7.2104 15.0362 5.49467 13.7708 4.22923C12.5053 2.96379 10.7896 2.25199 9 2.25Z" fill="black" fill-opacity="0.75"/>
</svg>
