<svg width="16" height="18" viewBox="0 0 16 18" fill="none" xmlns="http://www.w3.org/2000/svg">
<path d="M8 0.0314941C6.01546 0.0336775 4.11281 0.822951 2.70945 2.22617C1.3061 3.62938 0.516634 5.53195 0.514252 7.5165C0.514252 9.444 2.00675 12.4605 4.9505 16.482C5.30095 16.9621 5.75979 17.3527 6.2897 17.6219C6.81961 17.8912 7.40561 18.0315 8 18.0315C8.5944 18.0315 9.18039 17.8912 9.7103 17.6219C10.2402 17.3527 10.6991 16.9621 11.0495 16.482C13.9933 12.4605 15.4858 9.444 15.4858 7.5165C15.4834 5.53195 14.6939 3.62938 13.2906 2.22617C11.8872 0.822951 9.98455 0.0336775 8 0.0314941ZM8 10.5C7.40666 10.5 6.82664 10.324 6.33329 9.9944C5.83994 9.66476 5.45543 9.19622 5.22836 8.64805C5.0013 8.09987 4.94189 7.49667 5.05765 6.91472C5.1734 6.33278 5.45912 5.79823 5.87868 5.37867C6.29824 4.95912 6.83279 4.67339 7.41473 4.55764C7.99667 4.44188 8.59987 4.50129 9.14805 4.72836C9.69623 4.95542 10.1648 5.33994 10.4944 5.83328C10.8241 6.32663 11 6.90665 11 7.49999C11 8.29564 10.6839 9.05871 10.1213 9.62132C9.55871 10.1839 8.79565 10.5 8 10.5Z" fill="black" fill-opacity="0.75"/>
</svg>
