<svg width="18" height="72" viewBox="0 0 18 72" fill="none" xmlns="http://www.w3.org/2000/svg">
<g clip-path="url(#clip0_251_4679)">
<path d="M9 18C7.21997 18 5.47991 17.4722 3.99987 16.4832C2.51983 15.4943 1.36628 14.0887 0.685088 12.4442C0.00389957 10.7996 -0.17433 8.99002 0.172937 7.24419C0.520204 5.49836 1.37737 3.89472 2.63604 2.63604C3.89472 1.37737 5.49836 0.520204 7.24419 0.172937C8.99002 -0.17433 10.7996 0.00389957 12.4442 0.685088C14.0887 1.36628 15.4943 2.51983 16.4832 3.99987C17.4722 5.47991 18 7.21997 18 9C17.9974 11.3862 17.0484 13.6738 15.3611 15.3611C13.6738 17.0484 11.3862 17.9974 9 18ZM9 2.25C7.66498 2.25 6.35994 2.64588 5.2499 3.38758C4.13987 4.12928 3.27471 5.18349 2.76382 6.41689C2.25293 7.65029 2.11925 9.00749 2.3797 10.3169C2.64015 11.6262 3.28303 12.829 4.22703 13.773C5.17104 14.717 6.37377 15.3599 7.68314 15.6203C8.99252 15.8808 10.3497 15.7471 11.5831 15.2362C12.8165 14.7253 13.8707 13.8601 14.6124 12.7501C15.3541 11.6401 15.75 10.335 15.75 9C15.748 7.2104 15.0362 5.49467 13.7708 4.22923C12.5053 2.96379 10.7896 2.25199 9 2.25Z" fill="black" fill-opacity="0.75"/>
</g>
<path d="M9 24C9 25.4222 9 27.2593 9 28" stroke="black" stroke-opacity="0.75" stroke-linecap="round"/>
<path d="M9 34C9 35.4222 9 37.2593 9 38" stroke="black" stroke-opacity="0.75" stroke-linecap="round"/>
<path d="M9 44C9 45.4222 9 47.2593 9 48" stroke="black" stroke-opacity="0.75" stroke-linecap="round"/>
<g clip-path="url(#clip1_251_4679)">
<path d="M9 54.0315C7.01546 54.0337 5.11281 54.823 3.70945 56.2262C2.3061 57.6294 1.51663 59.532 1.51425 61.5165C1.51425 63.444 3.00675 66.4605 5.9505 70.482C6.30095 70.9621 6.75979 71.3527 7.2897 71.6219C7.81961 71.8912 8.40561 72.0315 9 72.0315C9.5944 72.0315 10.1804 71.8912 10.7103 71.6219C11.2402 71.3527 11.6991 70.9621 12.0495 70.482C14.9933 66.4605 16.4858 63.444 16.4858 61.5165C16.4834 59.532 15.6939 57.6294 14.2906 56.2262C12.8872 54.823 10.9845 54.0337 9 54.0315ZM9 64.5C8.40666 64.5 7.82664 64.324 7.33329 63.9944C6.83994 63.6648 6.45543 63.1962 6.22836 62.648C6.0013 62.0999 5.94189 61.4967 6.05765 60.9147C6.1734 60.3328 6.45912 59.7982 6.87868 59.3787C7.29824 58.9591 7.83279 58.6734 8.41473 58.5576C8.99667 58.4419 9.59987 58.5013 10.1481 58.7284C10.6962 58.9554 11.1648 59.3399 11.4944 59.8333C11.8241 60.3266 12 60.9067 12 61.5C12 62.2956 11.6839 63.0587 11.1213 63.6213C10.5587 64.1839 9.79565 64.5 9 64.5Z" fill="black" fill-opacity="0.75"/>
</g>
<defs>
<clipPath id="clip0_251_4679">
<rect width="18" height="18" fill="white"/>
</clipPath>
<clipPath id="clip1_251_4679">
<rect width="18" height="18" fill="white" transform="translate(0 54)"/>
</clipPath>
</defs>
</svg>
