<svg width="12" height="12" viewBox="0 0 12 12" fill="none" xmlns="http://www.w3.org/2000/svg">
<g clip-path="url(#clip0_251_4712)">
<path d="M4.5 12H0.5C0.367392 12 0.240215 11.9473 0.146447 11.8536C0.0526784 11.7598 0 11.6326 0 11.5C0 11.3674 0.0526784 11.2402 0.146447 11.1464C0.240215 11.0527 0.367392 11 0.5 11H4.5C4.63261 11 4.75979 11.0527 4.85355 11.1464C4.94732 11.2402 5 11.3674 5 11.5C5 11.6326 4.94732 11.7598 4.85355 11.8536C4.75979 11.9473 4.63261 12 4.5 12Z" fill="#DA4949"/>
<path d="M3.5 10H0.5C0.367392 10 0.240215 9.94732 0.146447 9.85355C0.0526784 9.75979 0 9.63261 0 9.5C0 9.36739 0.0526784 9.24021 0.146447 9.14645C0.240215 9.05268 0.367392 9 0.5 9H3.5C3.63261 9 3.75979 9.05268 3.85355 9.14645C3.94732 9.24021 4 9.36739 4 9.5C4 9.63261 3.94732 9.75979 3.85355 9.85355C3.75979 9.94732 3.63261 10 3.5 10Z" fill="#DA4949"/>
<path d="M2.5 8H0.5C0.367392 8 0.240215 7.94732 0.146447 7.85355C0.0526784 7.75979 0 7.63261 0 7.5C0 7.36739 0.0526784 7.24021 0.146447 7.14645C0.240215 7.05268 0.367392 7 0.5 7H2.5C2.63261 7 2.75979 7.05268 2.85355 7.14645C2.94732 7.24021 3 7.36739 3 7.5C3 7.63261 2.94732 7.75979 2.85355 7.85355C2.75979 7.94732 2.63261 8 2.5 8Z" fill="#DA4949"/>
<path d="M6.49999 11.9774C6.36738 11.9833 6.23786 11.9363 6.13992 11.8467C6.04198 11.7571 5.98364 11.6323 5.97774 11.4997C5.97184 11.3671 6.01886 11.2376 6.10845 11.1396C6.19805 11.0417 6.32288 10.9833 6.45549 10.9774C7.40172 10.8909 8.30369 10.5364 9.05576 9.95573C9.80783 9.375 10.3788 8.592 10.702 7.69844C11.0251 6.80488 11.0869 5.83776 10.8801 4.91034C10.6734 3.98292 10.2067 3.13361 9.53462 2.46189C8.86259 1.79016 8.01306 1.32383 7.08555 1.11752C6.15804 0.911207 5.19094 0.973452 4.29753 1.29697C3.40412 1.62048 2.62138 2.19186 2.041 2.9442C1.46063 3.69653 1.10663 4.59867 1.02049 5.54493C1.00856 5.67701 0.944643 5.79894 0.842811 5.88389C0.740978 5.96885 0.609569 6.00987 0.477491 5.99793C0.345414 5.986 0.223486 5.92209 0.138532 5.82025C0.0535784 5.71842 0.0125566 5.58701 0.0244913 5.45493C0.163936 3.91659 0.891293 2.49128 2.05516 1.47572C3.21902 0.460151 4.72971 -0.0674325 6.27277 0.00279131C7.81582 0.0730151 9.27235 0.735635 10.3392 1.85272C11.406 2.9698 12.0009 4.45528 12 5.99993C12.0077 7.49911 11.4507 8.94623 10.4399 10.0534C9.42917 11.1607 8.03865 11.8468 6.54499 11.9754C6.52999 11.9769 6.51449 11.9774 6.49999 11.9774Z" fill="#DA4949"/>
<path d="M6 3C5.86739 3 5.74021 3.05268 5.64645 3.14645C5.55268 3.24021 5.5 3.36739 5.5 3.5V6C5.50003 6.1326 5.55273 6.25975 5.6465 6.3535L7.1465 7.8535C7.2408 7.94458 7.3671 7.99498 7.4982 7.99384C7.6293 7.9927 7.75471 7.94011 7.84741 7.84741C7.94011 7.75471 7.9927 7.6293 7.99384 7.4982C7.99498 7.3671 7.94458 7.2408 7.8535 7.1465L6.5 5.793V3.5C6.5 3.36739 6.44732 3.24021 6.35355 3.14645C6.25979 3.05268 6.13261 3 6 3Z" fill="#DA4949"/>
</g>
<defs>
<clipPath id="clip0_251_4712">
<rect width="12" height="12" fill="white"/>
</clipPath>
</defs>
</svg>
