<svg width="25" height="25" viewBox="0 0 25 25" fill="none" xmlns="http://www.w3.org/2000/svg">
<g clip-path="url(#clip0_361_90)">
<path d="M20 6.5H19.5V3C19.5 1.621 18.379 0.5 17 0.5H5C2.519 0.5 0.5 2.519 0.5 5V14C0.5 16.481 2.519 18.5 5 18.5H5.5V20C5.5 22.481 7.519 24.5 10 24.5H20C22.481 24.5 24.5 22.481 24.5 20V11C24.5 8.519 22.481 6.5 20 6.5ZM18.5 6.5H8.276L18.09 1.971C18.344 2.24 18.5 2.602 18.5 3V6.5ZM5 17.5C3.07 17.5 1.5 15.93 1.5 14V5C1.5 3.07 3.07 1.5 5 1.5H16.723L7.533 5.741C6.298 6.311 5.5 7.558 5.5 8.92V17.5H5ZM23.5 20C23.5 21.93 21.93 23.5 20 23.5H10C8.07 23.5 6.5 21.93 6.5 20V8.92C6.5 8.402 6.661 7.908 6.945 7.497C6.964 7.499 6.981 7.5 7 7.5H20C21.93 7.5 23.5 9.07 23.5 11V20ZM20.5 12.5C20.5 12.776 20.276 13 20 13H16C15.724 13 15.5 12.776 15.5 12.5C15.5 12.224 15.724 12 16 12H20C20.276 12 20.5 12.224 20.5 12.5ZM12 10.5H11C10.173 10.5 9.5 11.173 9.5 12V13C9.5 13.827 10.173 14.5 11 14.5H12C12.827 14.5 13.5 13.827 13.5 13V12C13.5 11.173 12.827 10.5 12 10.5ZM12.5 13C12.5 13.275 12.275 13.5 12 13.5H11C10.725 13.5 10.5 13.275 10.5 13V12C10.5 11.725 10.725 11.5 11 11.5H12C12.275 11.5 12.5 11.725 12.5 12V13ZM20.5 18.5C20.5 18.776 20.276 19 20 19H16C15.724 19 15.5 18.776 15.5 18.5C15.5 18.224 15.724 18 16 18H20C20.276 18 20.5 18.224 20.5 18.5ZM12 16.5H11C10.173 16.5 9.5 17.173 9.5 18V19C9.5 19.827 10.173 20.5 11 20.5H12C12.827 20.5 13.5 19.827 13.5 19V18C13.5 17.173 12.827 16.5 12 16.5ZM12.5 19C12.5 19.275 12.275 19.5 12 19.5H11C10.725 19.5 10.5 19.275 10.5 19V18C10.5 17.725 10.725 17.5 11 17.5H12C12.275 17.5 12.5 17.725 12.5 18V19Z" fill="#9DB2CE"/>
</g>
<defs>
<clipPath id="clip0_361_90">
<rect width="24" height="24" fill="white" transform="translate(0.5 0.5)"/>
</clipPath>
</defs>
</svg>
