<svg width="18" height="18" viewBox="0 0 18 18" fill="none" xmlns="http://www.w3.org/2000/svg">
<g clip-path="url(#clip0_251_5828)">
<path d="M7.16475 10.7978C7.671 11.2928 8.3355 11.5403 9 11.5403C9.6645 11.5403 10.329 11.2928 10.8352 10.7978L12.7118 8.96177C13.7032 7.97027 14.25 6.65177 14.25 5.24927C14.25 3.84677 13.7032 2.52902 12.7118 1.53677C11.721 0.545268 10.4025 -0.000732422 9 -0.000732422C7.5975 -0.000732422 6.279 0.545268 5.2875 1.53677C3.24075 3.58352 3.24075 6.91427 5.2935 8.96702L7.16475 10.797V10.7978ZM6.348 2.59802C7.056 1.89002 7.998 1.50002 9 1.50002C10.002 1.50002 10.9432 1.89002 11.6512 2.59802C12.3593 3.30602 12.75 4.24802 12.75 5.25002C12.75 6.25202 12.3593 7.19327 11.6573 7.89602L9.78675 9.72602C9.35325 10.149 8.64675 10.149 8.21325 9.72602L6.348 7.90202C4.88625 6.43952 4.88625 4.05977 6.348 2.59802ZM6.75 5.24252C6.75 3.99977 7.75725 2.99252 9 2.99252C10.2428 2.99252 11.25 3.99977 11.25 5.24252C11.25 6.48527 10.2428 7.49252 9 7.49252C7.75725 7.49252 6.75 6.48527 6.75 5.24252ZM18 12.5753C18 12.8393 17.8612 13.083 17.6362 13.218L10.2405 17.6558C9.858 17.8853 9.429 18 9.00075 18C8.5725 18 8.14275 17.8853 7.761 17.6558L0.36375 13.2188C0.138 13.083 0 12.8393 0 12.576C0 12.3128 0.13875 12.0683 0.36375 11.9333L3.5355 10.0305C3.89175 9.81677 4.35225 9.93227 4.5645 10.2878C4.7775 10.6433 4.66275 11.1038 4.30725 11.3168L2.20725 12.5768L8.532 16.3718C8.82075 16.5443 9.17925 16.5443 9.468 16.3718L15.7927 12.5768L13.6927 11.3168C13.3372 11.1038 13.2225 10.6433 13.4355 10.2878C13.6485 9.93227 14.1082 9.81677 14.4645 10.0305L17.6362 11.9333C17.862 12.069 18 12.312 18 12.5753Z" fill="#5C5C5C"/>
</g>
<defs>
<clipPath id="clip0_251_5828">
<rect width="18" height="18" fill="white"/>
</clipPath>
</defs>
</svg>
