<svg width="21" height="19" viewBox="0 0 21 19" fill="none" xmlns="http://www.w3.org/2000/svg">
<g clip-path="url(#clip0_251_5890)">
<path d="M10.607 12.2498C10.4081 12.2498 10.2173 12.3288 10.0767 12.4694C9.93602 12.6101 9.857 12.8008 9.857 12.9998V15.2498C9.857 15.8465 9.61995 16.4188 9.19799 16.8407C8.77603 17.2627 8.20374 17.4998 7.607 17.4998H5.75C5.15326 17.4998 4.58097 17.2627 4.15901 16.8407C3.73705 16.4188 3.5 15.8465 3.5 15.2498V4.74976C3.5 4.15302 3.73705 3.58072 4.15901 3.15877C4.58097 2.73681 5.15326 2.49976 5.75 2.49976H7.607C8.20374 2.49976 8.77603 2.73681 9.19799 3.15877C9.61995 3.58072 9.857 4.15302 9.857 4.74976V6.99976C9.857 7.19867 9.93602 7.38943 10.0767 7.53009C10.2173 7.67074 10.4081 7.74976 10.607 7.74976C10.8059 7.74976 10.9967 7.67074 11.1373 7.53009C11.278 7.38943 11.357 7.19867 11.357 6.99976V4.74976C11.3558 3.75556 10.9603 2.80242 10.2573 2.09942C9.55433 1.39642 8.6012 1.00095 7.607 0.999756H5.75C4.7558 1.00095 3.80267 1.39642 3.09967 2.09942C2.39666 2.80242 2.00119 3.75556 2 4.74976L2 15.2498C2.00119 16.244 2.39666 17.1971 3.09967 17.9001C3.80267 18.6031 4.7558 18.9986 5.75 18.9998H7.607C8.6012 18.9986 9.55433 18.6031 10.2573 17.9001C10.9603 17.1971 11.3558 16.244 11.357 15.2498V12.9998C11.357 12.8008 11.278 12.6101 11.1373 12.4694C10.9967 12.3288 10.8059 12.2498 10.607 12.2498Z" fill="#5C5C5C"/>
<path d="M19.1503 8.40894L15.7108 4.96944C15.6416 4.89781 15.5588 4.84068 15.4673 4.80137C15.3758 4.76206 15.2774 4.74137 15.1778 4.74051C15.0782 4.73964 14.9795 4.75862 14.8873 4.79633C14.7951 4.83404 14.7114 4.88973 14.641 4.96015C14.5705 5.03057 14.5148 5.11431 14.4771 5.20648C14.4394 5.29865 14.4204 5.39741 14.4213 5.497C14.4222 5.59658 14.4429 5.69499 14.4822 5.7865C14.5215 5.878 14.5786 5.96076 14.6503 6.02994L17.8475 9.22719L6.5 9.24969C6.30109 9.24969 6.11032 9.32871 5.96967 9.46936C5.82902 9.61002 5.75 9.80078 5.75 9.99969C5.75 10.1986 5.82902 10.3894 5.96967 10.53C6.11032 10.6707 6.30109 10.7497 6.5 10.7497L17.891 10.7272L14.6488 13.9694C14.5771 14.0386 14.52 14.1214 14.4807 14.2129C14.4414 14.3044 14.4207 14.4028 14.4198 14.5024C14.4189 14.602 14.4379 14.7007 14.4756 14.7929C14.5133 14.8851 14.569 14.9688 14.6395 15.0392C14.7099 15.1097 14.7936 15.1654 14.8858 15.2031C14.978 15.2408 15.0767 15.2597 15.1763 15.2589C15.2759 15.258 15.3743 15.2373 15.4658 15.198C15.5573 15.1587 15.6401 15.1016 15.7092 15.0299L19.1488 11.5904C19.5708 11.1687 19.808 10.5966 19.8083 10C19.8086 9.40339 19.5719 8.83108 19.1503 8.40894Z" fill="#5C5C5C"/>
</g>
<defs>
<clipPath id="clip0_251_5890">
<rect width="21" height="18" fill="white" transform="translate(0 0.750732)"/>
</clipPath>
</defs>
</svg>
