<svg width="25" height="24" viewBox="0 0 25 24" fill="none" xmlns="http://www.w3.org/2000/svg">
<path d="M21.5 15.0002V18.7502C21.5 19.347 21.2629 19.9193 20.841 20.3412C20.419 20.7632 19.8467 21.0002 19.25 21.0002H15.5C14.4478 20.9991 13.4144 20.7214 12.5035 20.1948C11.5925 19.6683 10.8361 18.9114 10.31 18.0002C10.8754 17.9962 11.4389 17.9338 11.9915 17.8142C12.4124 18.3405 12.9462 18.7652 13.5536 19.0571C14.1609 19.349 14.8262 19.5004 15.5 19.5002H19.25C19.4489 19.5002 19.6397 19.4212 19.7803 19.2806C19.921 19.1399 20 18.9491 20 18.7502V15.0002C19.9998 14.3261 19.8479 13.6608 19.5555 13.0534C19.2631 12.446 18.8378 11.9123 18.311 11.4917C18.4316 10.9392 18.495 10.3757 18.5 9.81022C19.4112 10.3363 20.1681 11.0928 20.6946 12.0037C21.2212 12.9147 21.4989 13.948 21.5 15.0002ZM16.9827 10.2385C17.0529 9.2722 16.9142 8.30215 16.5761 7.39424C16.2381 6.48634 15.7085 5.66184 15.0234 4.97679C14.3384 4.29173 13.5139 3.76217 12.606 3.42409C11.6981 3.08601 10.728 2.94733 9.76175 3.01747C8.04944 3.21302 6.46769 4.02785 5.31438 5.30853C4.16107 6.5892 3.51577 8.24735 3.5 9.97072V13.7507C3.5 15.6497 4.63025 16.5002 5.75 16.5002H10.025C11.7491 16.4854 13.4083 15.8405 14.6898 14.6871C15.9714 13.5338 16.7869 11.9515 16.9827 10.2385ZM13.9625 6.03847C14.495 6.5721 14.9066 7.21387 15.1695 7.92036C15.4324 8.62685 15.5405 9.38158 15.4865 10.1335C15.3264 11.4712 14.6829 12.7043 13.677 13.6007C12.6711 14.497 11.3723 14.9948 10.025 15.0002H5.75C5.054 15.0002 5 14.044 5 13.7507V9.97072C5.00625 8.624 5.50449 7.326 6.40094 6.32098C7.29739 5.31596 8.53025 4.67322 9.8675 4.51372C9.992 4.50472 10.1165 4.50022 10.241 4.50022C10.932 4.49958 11.6163 4.6351 12.2548 4.89904C12.8934 5.16298 13.4736 5.55017 13.9625 6.03847Z" fill="#9DB2CE"/>
</svg>
