<svg width="18" height="18" viewBox="0 0 18 18" fill="none" xmlns="http://www.w3.org/2000/svg">
<g clip-path="url(#clip0_251_5846)">
<path d="M15 6C16.6545 6 18 4.6545 18 3C18 1.3455 16.6545 0 15 0C13.3455 0 12 1.3455 12 3C12 4.6545 13.3455 6 15 6ZM15 1.5C15.8273 1.5 16.5 2.17275 16.5 3C16.5 3.82725 15.8273 4.5 15 4.5C14.1728 4.5 13.5 3.82725 13.5 3C13.5 2.17275 14.1728 1.5 15 1.5ZM16.401 7.72575C16.3058 7.32225 15.8948 7.074 15.4995 7.167C15.096 7.26225 14.8463 7.66575 14.9408 8.0685L15.7335 11.4352C15.8715 11.9288 15.7718 12.4462 15.4598 12.855C15.1455 13.2652 14.6678 13.5 14.1488 13.5H3.85128C3.34878 13.5 2.88078 13.2772 2.56728 12.8888C2.25453 12.501 2.13753 12.0015 2.23803 11.5492L3.80853 5.7165C4.36353 3.234 6.54003 1.50075 9.10053 1.50075C9.42303 1.50075 9.74478 1.52925 10.0568 1.58625C10.47 1.65975 10.8548 1.38825 10.929 0.98175C11.0033 0.57375 10.7318 0.18375 10.3245 0.1095C9.92403 0.03675 9.51228 0 9.09978 0C5.83203 0 3.05403 2.21625 2.35203 5.358L0.781529 11.19C0.573029 12.123 0.798029 13.0852 1.39953 13.8307C1.99878 14.574 2.89278 15.0007 3.85128 15.0007H5.32578C5.67453 16.71 7.18878 18.0007 9.00003 18.0007C10.8113 18.0007 12.3255 16.71 12.6743 15.0007H14.148C15.138 15.0007 16.0508 14.5507 16.6508 13.7662C17.2515 12.9802 17.4435 11.9835 17.1855 11.0625L16.401 7.7265V7.72575ZM9.00003 16.5C8.02353 16.5 7.19853 15.8708 6.88803 15H11.1113C10.8008 15.8708 9.97578 16.5 8.99928 16.5H9.00003Z" fill="#5C5C5C"/>
</g>
<defs>
<clipPath id="clip0_251_5846">
<rect width="18" height="18" fill="white"/>
</clipPath>
</defs>
</svg>
