<svg width="18" height="18" viewBox="0 0 18 18" fill="none" xmlns="http://www.w3.org/2000/svg">
<g clip-path="url(#clip0_619_1826)">
<path d="M17.2496 0.751474C16.6294 0.122619 15.7251 -0.135215 14.8665 0.0720718L3.40215 2.48147C1.22503 2.80363 -0.278703 4.82971 0.0434578 7.0068C0.168701 7.8532 0.563063 8.63683 1.16819 9.24175L2.39725 10.4716C2.45479 10.5283 2.48696 10.606 2.4865 10.6868V12.9545C2.48815 14.3652 3.63137 15.5085 5.04213 15.5101H7.3098C7.39076 15.5101 7.46844 15.5422 7.52577 15.5994L8.75483 16.8284C9.498 17.5765 10.5087 17.9975 11.5632 17.9983C11.9984 17.9979 12.4308 17.9267 12.8432 17.7875C14.2665 17.3148 15.3008 16.0788 15.5151 14.5945L17.9245 3.16615C18.141 2.29855 17.8845 1.3811 17.2496 0.751474ZM2.34104 5.87022C2.54485 5.24056 3.09483 4.78588 3.75159 4.70415C3.77809 4.70064 3.80432 4.69614 3.83033 4.69065L13.8204 2.59097L4.73621 11.6699V10.6868C4.73786 10.0086 4.46776 9.35796 3.98633 8.88029L2.75875 7.65123C2.28593 7.18878 2.12311 6.49468 2.34104 5.87022ZM13.306 14.17C13.2999 14.1963 13.2962 14.2225 13.2925 14.2488C13.1622 15.1987 12.2866 15.8631 11.3368 15.7329C10.9615 15.6814 10.6133 15.5087 10.3454 15.2409L9.11707 14.0126C8.63915 13.531 7.98829 13.2609 7.30984 13.2627H6.32673L15.4087 4.1785L13.306 14.17Z" fill="#E2725B"/>
</g>
<defs>
<clipPath id="clip0_619_1826">
<rect width="18" height="18" fill="white"/>
</clipPath>
</defs>
</svg>
