<svg width="18" height="19" viewBox="0 0 18 19" fill="none" xmlns="http://www.w3.org/2000/svg">
<path d="M9.00049 12.8465L13.3722 14.5655C14.807 15.1295 15.7505 16.514 15.7505 18.0553V18.5H3.40399L2.03824 17.279C1.35049 16.6355 1.31824 15.5487 1.96474 14.8565C2.61049 14.165 3.69949 14.129 4.39099 14.7748C4.41649 14.7988 5.19274 15.4482 5.99974 16.1127V9.5C5.99974 8.58875 6.81199 7.868 7.75174 8.02025C8.48899 8.14025 8.99974 8.8325 8.99974 9.58025V12.8465H9.00049ZM14.6255 0.5H3.37549C1.51174 0.5 0.000488281 2.01125 0.000488281 3.875V6.125C0.000488281 7.98875 1.51174 9.5 3.37549 9.5H4.50049C4.50049 8.61875 4.88599 7.7855 5.55724 7.21475C6.07774 6.7715 6.72949 6.52475 7.40449 6.503C7.40449 6.46625 7.41049 6.42875 7.42174 6.39275L7.77424 5.26175L6.88249 4.5365C6.76249 4.4345 6.71899 4.26875 6.77299 4.12175C6.82699 3.974 6.96799 3.87575 7.12474 3.87575H8.24974L8.64799 2.75825C8.70274 2.61125 8.84299 2.5145 8.99974 2.5145C9.15649 2.5145 9.29674 2.612 9.35149 2.75825L9.74974 3.87575H10.8747C11.0322 3.87575 11.1732 3.974 11.2272 4.1225C11.2812 4.271 11.237 4.43675 11.1162 4.538L10.229 5.261L10.5957 6.3785C10.646 6.53 10.5957 6.6965 10.469 6.79325C10.3422 6.89 10.169 6.89675 10.0355 6.8105L9.00274 6.13775L8.29924 6.60875C9.54874 6.95825 10.4637 8.1425 10.499 9.50075H14.6247C16.4885 9.50075 17.9997 7.9895 17.9997 6.12575V3.87575C17.9997 2.012 16.4885 0.50075 14.6247 0.50075L14.6255 0.5ZM6.61699 4.53725L5.72974 5.26025L6.09649 6.37775C6.14674 6.52925 6.09649 6.69575 5.96974 6.7925C5.84299 6.88925 5.66974 6.896 5.53624 6.80975L4.50349 6.137L3.48799 6.8165C3.42499 6.8585 3.35224 6.8795 3.27949 6.8795C3.19999 6.8795 3.12124 6.85475 3.05449 6.8045C2.92699 6.70925 2.87374 6.5435 2.92174 6.392L3.27424 5.261L2.38249 4.53575C2.26249 4.43375 2.21899 4.268 2.27299 4.121C2.32699 3.97325 2.46799 3.875 2.62474 3.875H3.74974L4.14799 2.7575C4.20274 2.6105 4.34299 2.51375 4.49974 2.51375C4.65649 2.51375 4.79674 2.61125 4.85149 2.7575L5.24974 3.875H6.37474C6.53224 3.875 6.67324 3.97325 6.72724 4.12175C6.78124 4.27025 6.73774 4.436 6.61699 4.53725ZM15.617 4.53725L14.7297 5.26025L15.0965 6.37775C15.1467 6.52925 15.0965 6.69575 14.9697 6.7925C14.843 6.88925 14.6697 6.896 14.5362 6.80975L13.5035 6.137L12.488 6.8165C12.425 6.8585 12.3522 6.8795 12.2795 6.8795C12.2 6.8795 12.1212 6.85475 12.0545 6.8045C11.927 6.70925 11.8737 6.5435 11.9217 6.392L12.2742 5.261L11.3825 4.53575C11.2625 4.43375 11.219 4.268 11.273 4.121C11.327 3.97325 11.468 3.875 11.6247 3.875H12.7497L13.148 2.7575C13.2027 2.6105 13.343 2.51375 13.4997 2.51375C13.6565 2.51375 13.7967 2.61125 13.8515 2.7575L14.2497 3.875H15.3747C15.5322 3.875 15.6732 3.97325 15.7272 4.12175C15.7812 4.27025 15.737 4.436 15.6162 4.53725H15.617Z" fill="#299533" fill-opacity="0.75"/>
</svg>
