<svg width="25" height="24" viewBox="0 0 25 24" fill="none" xmlns="http://www.w3.org/2000/svg">
<g clip-path="url(#clip0_361_99)">
<path d="M19.595 6.1005C19.4434 5.23144 18.9897 4.44383 18.3141 3.87658C17.6384 3.30934 16.7842 2.99889 15.902 3H9.08825C8.20537 2.99866 7.35041 3.30937 6.6744 3.87725C5.99838 4.44512 5.54479 5.23363 5.39375 6.1035L3.557 16.6035C3.46268 17.1424 3.48743 17.6955 3.6295 18.2238C3.77158 18.7522 4.02754 19.243 4.37944 19.662C4.73134 20.0809 5.17064 20.4177 5.66653 20.6489C6.16242 20.88 6.70289 20.9999 7.25 21H17.75C18.2975 21.0001 18.8383 20.8803 19.3346 20.649C19.8308 20.4177 20.2704 20.0806 20.6224 19.6613C20.9744 19.242 21.2304 18.7507 21.3723 18.2219C21.5142 17.6931 21.5386 17.1397 21.4438 16.6005L19.595 6.1005ZM19.475 18.6968C19.2636 18.9485 18.9996 19.1509 18.7016 19.2897C18.4036 19.4285 18.0788 19.5003 17.75 19.5H7.25C6.92164 19.5 6.59725 19.4281 6.29961 19.2894C6.00197 19.1508 5.73829 18.9486 5.52709 18.6972C5.3159 18.4457 5.16229 18.1511 5.07706 17.834C4.99184 17.5169 4.97706 17.1849 5.03375 16.8615L6.8705 6.3615C6.96195 5.83983 7.2345 5.36713 7.64017 5.02663C8.04584 4.68612 8.55862 4.49964 9.08825 4.5H15.902C16.431 4.50011 16.9431 4.68662 17.3483 5.02678C17.7535 5.36694 18.0258 5.83898 18.1175 6.36L19.9648 16.86C20.0221 17.1834 20.008 17.5153 19.9234 17.8326C19.8388 18.1499 19.6857 18.4449 19.475 18.6968ZM13.25 6.75V8.25C13.25 8.44892 13.171 8.63968 13.0303 8.78033C12.8897 8.92099 12.6989 9 12.5 9C12.3011 9 12.1103 8.92099 11.9697 8.78033C11.829 8.63968 11.75 8.44892 11.75 8.25V6.75C11.75 6.55109 11.829 6.36033 11.9697 6.21967C12.1103 6.07902 12.3011 6 12.5 6C12.6989 6 12.8897 6.07902 13.0303 6.21967C13.171 6.36033 13.25 6.55109 13.25 6.75ZM13.25 11.25V12.75C13.25 12.9489 13.171 13.1397 13.0303 13.2803C12.8897 13.421 12.6989 13.5 12.5 13.5C12.3011 13.5 12.1103 13.421 11.9697 13.2803C11.829 13.1397 11.75 12.9489 11.75 12.75V11.25C11.75 11.0511 11.829 10.8603 11.9697 10.7197C12.1103 10.579 12.3011 10.5 12.5 10.5C12.6989 10.5 12.8897 10.579 13.0303 10.7197C13.171 10.8603 13.25 11.0511 13.25 11.25ZM13.25 15.75V17.25C13.25 17.4489 13.171 17.6397 13.0303 17.7803C12.8897 17.921 12.6989 18 12.5 18C12.3011 18 12.1103 17.921 11.9697 17.7803C11.829 17.6397 11.75 17.4489 11.75 17.25V15.75C11.75 15.5511 11.829 15.3603 11.9697 15.2197C12.1103 15.079 12.3011 15 12.5 15C12.6989 15 12.8897 15.079 13.0303 15.2197C13.171 15.3603 13.25 15.5511 13.25 15.75Z" fill="#9DB2CE"/>
</g>
<defs>
<clipPath id="clip0_361_99">
<rect width="18" height="18" fill="white" transform="translate(3.5 3)"/>
</clipPath>
</defs>
</svg>
