<svg width="25" height="25" viewBox="0 0 25 25" fill="none" xmlns="http://www.w3.org/2000/svg">
<path d="M19.4705 13.925L19.1375 13.733C19.2874 12.9173 19.2874 12.0812 19.1375 11.2655L19.4705 11.0735C19.7266 10.9258 19.951 10.729 20.1311 10.4945C20.3111 10.2601 20.4432 9.9924 20.5198 9.70686C20.5964 9.42132 20.6161 9.12349 20.5776 8.83037C20.5391 8.53725 20.4432 8.25458 20.2955 7.9985C20.1477 7.74242 19.951 7.51795 19.7165 7.3379C19.482 7.15785 19.2144 7.02575 18.9288 6.94915C18.6433 6.87254 18.3455 6.85292 18.0523 6.89142C17.7592 6.92991 17.4766 7.02576 17.2205 7.1735L16.8867 7.36625C16.2564 6.82769 15.532 6.41019 14.75 6.13475V5.75C14.75 5.15326 14.5129 4.58097 14.091 4.15901C13.669 3.73705 13.0967 3.5 12.5 3.5C11.9032 3.5 11.3309 3.73705 10.909 4.15901C10.487 4.58097 10.25 5.15326 10.25 5.75V6.13475C9.46801 6.41118 8.74386 6.8297 8.11397 7.36925L7.77872 7.175C7.26155 6.87663 6.64703 6.79593 6.07036 6.95065C5.49368 7.10536 5.00209 7.48283 4.70372 8C4.40535 8.51717 4.32465 9.13169 4.47937 9.70836C4.63409 10.285 5.01155 10.7766 5.52872 11.075L5.86172 11.267C5.7118 12.0827 5.7118 12.9188 5.86172 13.7345L5.52872 13.9265C5.01155 14.2249 4.63409 14.7165 4.47937 15.2931C4.32465 15.8698 4.40535 16.4843 4.70372 17.0015C5.00209 17.5187 5.49368 17.8961 6.07036 18.0509C6.64703 18.2056 7.26155 18.1249 7.77872 17.8265L8.11247 17.6337C8.74304 18.1724 9.46771 18.5899 10.25 18.8652V19.25C10.25 19.8467 10.487 20.419 10.909 20.841C11.3309 21.2629 11.9032 21.5 12.5 21.5C13.0967 21.5 13.669 21.2629 14.091 20.841C14.5129 20.419 14.75 19.8467 14.75 19.25V18.8652C15.5319 18.5888 16.2561 18.1703 16.886 17.6307L17.2212 17.8243C17.7384 18.1226 18.3529 18.2033 18.9296 18.0486C19.5063 17.8939 19.9979 17.5164 20.2962 16.9993C20.5946 16.4821 20.6753 15.8676 20.5206 15.2909C20.3659 14.7142 19.9884 14.2226 19.4712 13.9242L19.4705 13.925ZM17.5595 11.093C17.8135 12.0133 17.8135 12.9852 17.5595 13.9055C17.5151 14.0657 17.5252 14.2361 17.5882 14.3899C17.6512 14.5437 17.7635 14.6722 17.9075 14.7552L18.7205 15.2248C18.8928 15.3242 19.0186 15.4881 19.0702 15.6803C19.1217 15.8725 19.0948 16.0773 18.9953 16.2496C18.8959 16.422 18.732 16.5478 18.5398 16.5993C18.3476 16.6509 18.1428 16.624 17.9705 16.5245L17.156 16.0535C17.0119 15.9701 16.8441 15.9369 16.6792 15.9593C16.5142 15.9817 16.3613 16.0584 16.2447 16.1772C15.5772 16.8587 14.7362 17.345 13.8125 17.5835C13.6512 17.625 13.5084 17.7189 13.4064 17.8504C13.3044 17.982 13.2491 18.1438 13.2492 18.3102V19.25C13.2492 19.4489 13.1702 19.6397 13.0296 19.7803C12.8889 19.921 12.6981 20 12.4992 20C12.3003 20 12.1095 19.921 11.9689 19.7803C11.8282 19.6397 11.7492 19.4489 11.7492 19.25V18.311C11.7493 18.1445 11.694 17.9828 11.592 17.8512C11.49 17.7196 11.3472 17.6257 11.186 17.5842C10.2622 17.3448 9.42147 16.8575 8.75447 16.175C8.63786 16.0561 8.48502 15.9795 8.32004 15.9571C8.15505 15.9347 7.9873 15.9678 7.84322 16.0513L7.03022 16.5215C6.94489 16.5715 6.85051 16.6042 6.75252 16.6176C6.65452 16.631 6.55484 16.6249 6.45921 16.5996C6.36359 16.5743 6.27391 16.5303 6.19534 16.4703C6.11677 16.4102 6.05085 16.3352 6.0014 16.2495C5.95194 16.1638 5.91992 16.0692 5.90717 15.9712C5.89442 15.8731 5.9012 15.7734 5.92711 15.678C5.95303 15.5825 5.99757 15.4931 6.05817 15.415C6.11877 15.3368 6.19424 15.2714 6.28022 15.2225L7.09322 14.753C7.23718 14.6699 7.34948 14.5414 7.41247 14.3876C7.47545 14.2338 7.48557 14.0634 7.44122 13.9032C7.18724 12.983 7.18724 12.011 7.44122 11.0908C7.48477 10.9309 7.47417 10.7612 7.41108 10.608C7.34799 10.4548 7.23596 10.3268 7.09247 10.244L6.27947 9.7745C6.10711 9.67504 5.98132 9.51119 5.92978 9.31899C5.87823 9.12679 5.90514 8.92198 6.0046 8.74962C6.10405 8.57727 6.2679 8.45148 6.46011 8.39993C6.65231 8.34838 6.85711 8.37529 7.02947 8.47475L7.84397 8.94575C7.98766 9.02939 8.15506 9.06291 8.31987 9.04105C8.48468 9.01919 8.63755 8.9432 8.75447 8.825C9.42204 8.14351 10.263 7.65727 11.1867 7.41875C11.3484 7.37717 11.4917 7.28281 11.5937 7.15063C11.6957 7.01844 11.7507 6.85598 11.75 6.689V5.75C11.75 5.55109 11.829 5.36032 11.9696 5.21967C12.1103 5.07902 12.3011 5 12.5 5C12.6989 5 12.8896 5.07902 13.0303 5.21967C13.171 5.36032 13.25 5.55109 13.25 5.75V6.689C13.2499 6.85547 13.3052 7.01723 13.4072 7.14881C13.5091 7.28039 13.652 7.3743 13.8132 7.41575C14.7372 7.65511 15.5783 8.14241 16.2455 8.825C16.3621 8.94385 16.5149 9.02052 16.6799 9.04292C16.8449 9.06533 17.0126 9.0322 17.1567 8.94875L17.9697 8.4785C18.055 8.42848 18.1494 8.39583 18.2474 8.38243C18.3454 8.36903 18.4451 8.37514 18.5407 8.40043C18.6364 8.42571 18.726 8.46965 18.8046 8.52974C18.8832 8.58982 18.9491 8.66485 18.9985 8.7505C19.048 8.83616 19.08 8.93076 19.0928 9.02884C19.1055 9.12693 19.0987 9.22656 19.0728 9.32202C19.0469 9.41747 19.0024 9.50686 18.9418 9.58503C18.8812 9.6632 18.8057 9.72861 18.7197 9.7775L17.9067 10.247C17.7635 10.33 17.6518 10.4581 17.589 10.6113C17.5262 10.7644 17.5158 10.9341 17.5595 11.0938V11.093Z" fill="#9DB2CE"/>
<path d="M12.5974 9.5C11.9977 9.5 11.4114 9.67595 10.9127 10.0056C10.414 10.3352 10.0253 10.8038 9.79578 11.3519C9.56626 11.9001 9.5062 12.5033 9.62321 13.0853C9.74022 13.6672 10.029 14.2018 10.4531 14.6213C10.8772 15.0409 11.4176 15.3266 12.0058 15.4424C12.5941 15.5581 13.2038 15.4987 13.7579 15.2716C14.3121 15.0446 14.7857 14.6601 15.1189 14.1667C15.4521 13.6734 15.6299 13.0933 15.6299 12.5C15.6299 11.7044 15.3105 10.9413 14.7417 10.3787C14.173 9.81607 13.4017 9.5 12.5974 9.5ZM12.5974 14C12.2976 14 12.0044 13.912 11.7551 13.7472C11.5057 13.5824 11.3114 13.3481 11.1966 13.074C11.0819 12.7999 11.0518 12.4983 11.1103 12.2074C11.1688 11.9164 11.3132 11.6491 11.5253 11.4393C11.7373 11.2296 12.0075 11.0867 12.3016 11.0288C12.5958 10.9709 12.9006 11.0006 13.1777 11.1142C13.4547 11.2277 13.6916 11.42 13.8582 11.6666C14.0248 11.9133 14.1137 12.2033 14.1137 12.5C14.1137 12.8978 13.9539 13.2794 13.6696 13.5607C13.3852 13.842 12.9996 14 12.5974 14Z" fill="#9DB2CE"/>
</svg>
