<svg width="18" height="18" viewBox="0 0 18 18" fill="none" xmlns="http://www.w3.org/2000/svg">
<g clip-path="url(#clip0_251_4698)">
<path d="M9.05025 13.0837C9.48675 13.5255 9.483 14.238 9.04125 14.6745L6.1965 17.487C5.8335 17.8493 5.35575 18.0315 4.87725 18.0315C4.39875 18.0315 3.91575 17.8493 3.54975 17.4832L0.709502 14.6752C0.267752 14.2387 0.264002 13.5262 0.700502 13.0845C1.137 12.642 1.85025 12.639 2.292 13.0755L3.75075 14.5177V1.125C3.75075 0.504 4.254 0 4.87575 0C5.4975 0 6.00075 0.504 6.00075 1.125V14.5177L7.4595 13.0755C7.902 12.639 8.61375 12.642 9.051 13.0845L9.05025 13.0837ZM17.2913 3.35775L14.451 0.54975C13.7205 -0.1815 12.531 -0.1815 11.8043 0.54525L8.9595 3.35775C8.51775 3.79425 8.514 4.50675 8.9505 4.9485C9.387 5.391 10.1003 5.394 10.542 4.9575L12.0008 3.51525V16.875C12.0008 17.496 12.504 18 13.1258 18C13.7475 18 14.2508 17.496 14.2508 16.875V3.5145L15.7095 4.95675C15.9285 5.1735 16.215 5.28225 16.5008 5.28225C16.791 5.28225 17.0805 5.17125 17.301 4.9485C17.7375 4.50675 17.733 3.79425 17.2913 3.35775Z" fill="black" fill-opacity="0.75"/>
</g>
<defs>
<clipPath id="clip0_251_4698">
<rect width="18" height="18" fill="white"/>
</clipPath>
</defs>
</svg>
