<svg width="20" height="22" viewBox="0 0 20 22" fill="none" xmlns="http://www.w3.org/2000/svg">
<g filter="url(#filter0_d_251_4720)">
<path d="M15.9998 11C15.9998 12.103 15.1028 13 13.9998 13H11.4998C11.2233 13 10.9998 12.776 10.9998 12.5C10.9998 12.224 11.2233 12 11.4998 12H13.9998C14.5513 12 14.9998 11.5515 14.9998 11C14.9998 10.4485 14.5513 10 13.9998 10H10.4998C9.39682 10 8.49982 9.103 8.49982 8C8.49982 6.897 9.39682 6 10.4998 6H11.4998C11.7763 6 11.9998 6.224 11.9998 6.5C11.9998 6.776 11.7763 7 11.4998 7H10.4998C9.94832 7 9.49982 7.4485 9.49982 8C9.49982 8.5515 9.94832 9 10.4998 9H13.9998C15.1028 9 15.9998 9.897 15.9998 11ZM9.99982 12.25C9.99982 12.664 9.66382 13 9.24982 13H8.98732C8.99332 13.041 8.99982 13.082 8.99982 13.125C8.99982 13.608 8.60782 14 8.12482 14C7.64182 14 7.24982 13.608 7.24982 13.125C7.24982 13.082 7.25632 13.041 7.26232 13H6.23732C6.24332 13.041 6.24982 13.082 6.24982 13.125C6.24982 13.608 5.85782 14 5.37482 14C4.89182 14 4.49982 13.608 4.49982 13.125C4.49982 13.068 4.50632 13.013 4.51632 12.9595C4.21682 12.861 3.99982 12.5825 3.99982 12.25V11C3.99982 10.173 4.67282 9.5 5.49982 9.5H6.44732C7.11732 9.5 7.73932 9.833 8.11132 10.3905L8.85082 11.5H9.24982C9.66382 11.5 9.99982 11.836 9.99982 12.25ZM4.99982 11.5H7.64882L7.27882 10.9455C7.09282 10.6665 6.78182 10.5 6.44682 10.5H5.49932C5.22382 10.5 4.99932 10.7245 4.99932 11V11.5H4.99982ZM13.4998 7C13.7763 7 13.9998 6.776 13.9998 6.5V4.625L15.7823 3.6825C16.0728 3.483 16.0728 3.018 15.7823 2.818L14.3758 2.1885C14.0978 2.064 13.8003 2 13.5003 2C13.2238 2 13.0003 2.224 13.0003 2.5V6.5C13.0003 6.776 13.2233 7 13.4998 7Z" fill="black" fill-opacity="0.75"/>
</g>
<defs>
<filter id="filter0_d_251_4720" x="-2" y="0" width="24" height="24" filterUnits="userSpaceOnUse" color-interpolation-filters="sRGB">
<feFlood flood-opacity="0" result="BackgroundImageFix"/>
<feColorMatrix in="SourceAlpha" type="matrix" values="0 0 0 0 0 0 0 0 0 0 0 0 0 0 0 0 0 0 127 0" result="hardAlpha"/>
<feOffset dy="4"/>
<feGaussianBlur stdDeviation="2"/>
<feComposite in2="hardAlpha" operator="out"/>
<feColorMatrix type="matrix" values="0 0 0 0 0 0 0 0 0 0 0 0 0 0 0 0 0 0 0.25 0"/>
<feBlend mode="normal" in2="BackgroundImageFix" result="effect1_dropShadow_251_4720"/>
<feBlend mode="normal" in="SourceGraphic" in2="effect1_dropShadow_251_4720" result="shape"/>
</filter>
</defs>
</svg>
