<svg width="18" height="18" viewBox="0 0 18 18" fill="none" xmlns="http://www.w3.org/2000/svg">
<g clip-path="url(#clip0_441_1411)">
<path d="M6 9C3.51825 9 1.5 6.98175 1.5 4.5C1.5 2.01825 3.51825 0 6 0C8.48175 0 10.5 2.01825 10.5 4.5C10.5 6.98175 8.48175 9 6 9ZM13.8757 18C13.761 18 13.6455 17.9738 13.5405 17.9212L13.3898 17.8455C12.5355 17.4188 9.75 15.8175 9.75 13.1415V10.8278C9.75 9.8565 10.3695 8.9985 11.2913 8.69175L13.6395 7.91325C13.7918 7.863 13.959 7.863 14.1112 7.91325L16.4587 8.69175C17.3805 8.99775 18.0007 9.8565 18.0007 10.8278V13.1415C18.0007 16.1655 15.1777 17.535 14.313 17.883L14.1562 17.946C14.0662 17.982 13.971 18 13.8765 18H13.8757ZM8.25 13.1407V11.6093C8.25 11.1892 7.97025 10.8165 7.5645 10.707C6.8475 10.5127 6.07725 10.449 5.2815 10.542C2.22825 10.8997 0 13.6253 0 16.6995V17.25C0 17.664 0.336 18 0.75 18H10.8735C9.60675 16.9807 8.25 15.369 8.25 13.1407Z" fill="#5C5C5C"/>
</g>
<defs>
<clipPath id="clip0_441_1411">
<rect width="18" height="18" fill="white"/>
</clipPath>
</defs>
</svg>
