<svg width="20" height="20" viewBox="0 0 20 20" fill="none" xmlns="http://www.w3.org/2000/svg">
<path d="M1 9.87535C1 14.7772 5.0293 18.7507 10 18.7507C14.9707 18.7507 19 14.7772 19 9.87535C19 4.97349 14.9707 1 10 1C5.0293 1 1 4.97349 1 9.87535Z" stroke="#5C5C5C" stroke-width="1.5" stroke-linecap="round" stroke-linejoin="round"/>
<path d="M10.9 1.04443C10.9 1.04443 13.6 4.55019 13.6 9.8754C13.6 15.2006 10.9 18.7064 10.9 18.7064M9.10002 18.7064C9.10002 18.7064 6.40002 15.2006 6.40002 9.8754C6.40002 4.55019 9.10002 1.04443 9.10002 1.04443M1.56702 12.9818H18.433M1.56702 6.76903H18.433" stroke="#5C5C5C" stroke-width="1.5" stroke-linecap="round" stroke-linejoin="round"/>
</svg>
